<?xml version="1.0" encoding="UTF-8" standalone="no"?>
<!-- Created with Inkscape (http://www.inkscape.org/) -->

<svg
   width="300mm"
   height="300mm"
   viewBox="0 0 300 300"
   version="1.1"
   id="svg1"
   sodipodi:docname="home.svg"
   xml:space="preserve"
   inkscape:version="1.3.2 (091e20e, 2023-11-25)"
   xmlns:inkscape="http://www.inkscape.org/namespaces/inkscape"
   xmlns:sodipodi="http://sodipodi.sourceforge.net/DTD/sodipodi-0.dtd"
   xmlns="http://www.w3.org/2000/svg"
   xmlns:svg="http://www.w3.org/2000/svg"><sodipodi:namedview
     id="namedview1"
     pagecolor="#ffffff"
     bordercolor="#000000"
     borderopacity="0.25"
     inkscape:showpageshadow="2"
     inkscape:pageopacity="0.0"
     inkscape:pagecheckerboard="0"
     inkscape:deskcolor="#d1d1d1"
     inkscape:document-units="mm"
     inkscape:zoom="0.40338573"
     inkscape:cx="713.95683"
     inkscape:cy="753.6211"
     inkscape:window-width="2560"
     inkscape:window-height="1412"
     inkscape:window-x="1440"
     inkscape:window-y="0"
     inkscape:window-maximized="1"
     inkscape:current-layer="layer2" /><defs
     id="defs1"><inkscape:path-effect
       effect="fillet_chamfer"
       id="path-effect11"
       is_visible="true"
       lpeversion="1"
       nodesatellites_param="F,0,0,1,0,0,0,1 @ F,0,0,1,0,0,0,1 @ F,0,0,1,0,0,0,1 @ F,0,0,1,0,0,0,1 @ F,0,0,1,0,0,0,1 | F,0,1,1,0,13.643914,0,1 @ F,0,0,1,0,13.643914,0,1 @ F,0,0,1,0,10.364381,0,1 @ F,0,0,1,0,10.364381,0,1 @ F,0,0,1,0,0,0,1 @ F,0,0,1,0,0,0,1 @ F,0,0,1,0,10.364381,0,1 @ F,0,0,1,0,10.364381,0,1 @ F,0,1,1,0,13.643914,0,1"
       radius="0"
       unit="px"
       method="auto"
       mode="F"
       chamfer_steps="1"
       flexible="false"
       use_knot_distance="true"
       apply_no_radius="true"
       apply_with_radius="true"
       only_selected="false"
       hide_knots="false" /><inkscape:path-effect
       effect="fillet_chamfer"
       id="path-effect10"
       is_visible="true"
       lpeversion="1"
       nodesatellites_param="F,0,0,1,0,13.229167,0,1 @ F,0,0,1,0,13.229167,0,1 @ F,0,0,1,0,13.229167,0,1 @ F,0,0,1,0,13.229167,0,1 | F,0,0,1,0,13.229167,0,1 @ F,0,0,1,0,13.229167,0,1 @ F,0,0,1,0,13.229167,0,1 @ F,0,0,1,0,13.229167,0,1 @ F,0,0,1,0,13.229167,0,1 @ F,0,0,1,0,13.229167,0,1 @ F,0,0,1,0,13.229167,0,1 @ F,0,0,1,0,13.229167,0,1 @ F,0,0,1,0,13.229167,0,1"
       radius="50"
       unit="px"
       method="auto"
       mode="F"
       chamfer_steps="1"
       flexible="false"
       use_knot_distance="true"
       apply_no_radius="true"
       apply_with_radius="true"
       only_selected="false"
       hide_knots="false" /></defs><g
     inkscape:label="Layer 1"
     inkscape:groupmode="layer"
     id="layer1"
     style="display:none"><path
       id="path11"
       style="stroke-width:0.264999;stroke-miterlimit:3.7"
       d="M 50.000049,9.9999064 C 27.908548,9.9998276 9.9998276,27.908548 9.9999064,50.000049 10.025241,63.213953 16.574824,75.562715 27.50013,82.995451 v -33.09509 -2.894445 -5.493217 l 22.499919,-19.295628 22.499918,19.21364 v 8.526784 33.037956 C 83.425274,75.562715 89.974856,63.213953 90.000191,50.000049 90.00027,27.908548 72.09155,9.999828 50.000049,9.9999064 Z"
       sodipodi:nodetypes="cccccccccccc" /><path
       d="M 56.592928,89.397127 V 64.970895 H 43.40717 v 24.426232 c 2.177187,0.382853 4.382364,0.584565 6.592879,0.603064 2.210515,-0.0185 4.415692,-0.220211 6.592879,-0.603064 z"
       style="stroke-width:0.264999;stroke-miterlimit:3.7"
       id="path12"
       sodipodi:nodetypes="cccccc" /><path
       style="fill:#ffffff;stroke:none;stroke-width:0.264999;stroke-miterlimit:3.7"
       d="M 11.965116,9.8895349 29.546513,7.4476744"
       id="path9" /></g><g
     inkscape:groupmode="layer"
     id="layer2"
     inkscape:label="Layer 2"><path
       id="path10"
       style="fill:#1b1f23;stroke-width:0.264999;stroke-miterlimit:3.7"
       d="M 150.00015,15.13241 C 75.514701,15.132283 15.132283,75.514701 15.13241,150.00015 c 4.9e-5,22.59441 5.556198,43.89111 15.376698,62.59835 22.553989,42.96349 67.600203,72.26896 119.491042,72.26887 74.48504,-1.3e-4 134.86706,-60.38218 134.86722,-134.86722 C 284.8675,75.514904 224.4854,15.13257 150.00015,15.13241 Z m 12.29393,40.696902 55.35812,42.053542 a 27.499109,27.499109 63.611305 0 1 10.86453,21.897296 l 0,104.79357 a 10.364381,10.364381 135 0 1 -10.36438,10.36438 l -29.46783,0 a 10.364381,10.364381 45 0 1 -10.36438,-10.36438 v -83.09527 h -53.78176 l 0,83.09527 A 10.364381,10.364381 135 0 1 114.174,234.9381 l -29.467836,0 A 10.364381,10.364381 45 0 1 74.341783,224.57372 V 119.78015 A 27.498982,27.498982 116.3888 0 1 85.206343,97.882894 L 140.56499,55.829272 a 17.96054,17.96054 1.0507796e-4 0 1 21.72909,4e-5 z"
       sodipodi:nodetypes="ccsssccccccccccc"
       inkscape:path-effect="#path-effect11"
       inkscape:original-d="M 150.00015,15.13241 C 75.514701,15.132283 15.132283,75.514701 15.13241,150.00015 c 4.9e-5,22.59441 5.556198,43.89111 15.376698,62.59835 22.553989,42.96349 67.600203,72.26896 119.491042,72.26887 74.48504,-1.3e-4 134.86706,-60.38218 134.86722,-134.86722 C 284.8675,75.514904 224.4854,15.13257 150.00015,15.13241 Z m 1.4294,32.443516 77.08718,58.560314 V 234.9381 H 178.32014 V 141.47845 H 124.53838 V 234.9381 H 74.341783 V 106.13624 Z" /></g></svg>
